# Blender 4.0.1
# www.blender.org
o Icosphere
v 0.000000 -1.000000 0.000000
v 0.723607 -0.447220 0.525725
v -0.276388 -0.447220 0.850649
v -0.894426 -0.447216 0.000000
v -0.276388 -0.447220 -0.850649
v 0.723607 -0.447220 -0.525725
v 0.276388 0.447220 0.850649
v -0.723607 0.447220 0.525725
v -0.723607 0.447220 -0.525725
v 0.276388 0.447220 -0.850649
v 0.894426 0.447216 0.000000
v 0.000000 1.000000 0.000000
v -0.162456 -0.850654 0.499995
v 0.425323 -0.850654 0.309011
v 0.262869 -0.525738 0.809012
v 0.850648 -0.525736 0.000000
v 0.425323 -0.850654 -0.309011
v -0.525730 -0.850652 0.000000
v -0.688189 -0.525736 0.499997
v -0.162456 -0.850654 -0.499995
v -0.688189 -0.525736 -0.499997
v 0.262869 -0.525738 -0.809012
v 0.951058 0.000000 0.309013
v 0.951058 0.000000 -0.309013
v 0.000000 0.000000 1.000000
v 0.587786 0.000000 0.809017
v -0.951058 0.000000 0.309013
v -0.587786 0.000000 0.809017
v -0.587786 0.000000 -0.809017
v -0.951058 0.000000 -0.309013
v 0.587786 0.000000 -0.809017
v 0.000000 0.000000 -1.000000
v 0.688189 0.525736 0.499997
v -0.262869 0.525738 0.809012
v -0.850648 0.525736 0.000000
v -0.262869 0.525738 -0.809012
v 0.688189 0.525736 -0.499997
v 0.162456 0.850654 0.499995
v 0.525730 0.850652 0.000000
v -0.425323 0.850654 0.309011
v -0.425323 0.850654 -0.309011
v 0.162456 0.850654 -0.499995
s 0
f 1//1 14//14 13//13
f 2//2 14//14 16//16
f 1//1 13//13 18//18
f 1//1 18//18 20//20
f 1//1 20//20 17//17
f 2//2 16//16 23//23
f 3//3 15//15 25//25
f 4//4 19//19 27//27
f 5//5 21//21 29//29
f 6//6 22//22 31//31
f 2//2 23//23 26//26
f 3//3 25//25 28//28
f 4//4 27//27 30//30
f 5//5 29//29 32//32
f 6//6 31//31 24//24
f 7//7 33//33 38//38
f 8//8 34//34 40//40
f 9//9 35//35 41//41
f 10//10 36//36 42//42
f 11//11 37//37 39//39
f 39//39 42//42 12//12
f 39//39 37//37 42//42
f 37//37 10//10 42//42
f 42//42 41//41 12//12
f 42//42 36//36 41//41
f 36//36 9//9 41//41
f 41//41 40//40 12//12
f 41//41 35//35 40//40
f 35//35 8//8 40//40
f 40//40 38//38 12//12
f 40//40 34//34 38//38
f 34//34 7//7 38//38
f 38//38 39//39 12//12
f 38//38 33//33 39//39
f 33//33 11//11 39//39
f 24//24 37//37 11//11
f 24//24 31//31 37//37
f 31//31 10//10 37//37
f 32//32 36//36 10//10
f 32//32 29//29 36//36
f 29//29 9//9 36//36
f 30//30 35//35 9//9
f 30//30 27//27 35//35
f 27//27 8//8 35//35
f 28//28 34//34 8//8
f 28//28 25//25 34//34
f 25//25 7//7 34//34
f 26//26 33//33 7//7
f 26//26 23//23 33//33
f 23//23 11//11 33//33
f 31//31 32//32 10//10
f 31//31 22//22 32//32
f 22//22 5//5 32//32
f 29//29 30//30 9//9
f 29//29 21//21 30//30
f 21//21 4//4 30//30
f 27//27 28//28 8//8
f 27//27 19//19 28//28
f 19//19 3//3 28//28
f 25//25 26//26 7//7
f 25//25 15//15 26//26
f 15//15 2//2 26//26
f 23//23 24//24 11//11
f 23//23 16//16 24//24
f 16//16 6//6 24//24
f 17//17 22//22 6//6
f 17//17 20//20 22//22
f 20//20 5//5 22//22
f 20//20 21//21 5//5
f 20//20 18//18 21//21
f 18//18 4//4 21//21
f 18//18 19//19 4//4
f 18//18 13//13 19//19
f 13//13 3//3 19//19
f 16//16 17//17 6//6
f 16//16 14//14 17//17
f 14//14 1//1 17//17
f 13//13 15//15 3//3
f 13//13 14//14 15//15
f 14//14 2//2 15//15
vn -1.4545410920163704e-07 -1.0 9.450809912436853e-09
vn 0.7236074805259705 -0.4472176134586334 0.5257267355918884
vn -0.27639055252075195 -0.447218656539917 0.8506489396095276
vn -0.894426167011261 -0.44721564650535583 3.818347305006853e-10
vn -0.27639055252075195 -0.447218656539917 -0.8506490588188171
vn 0.7236074805259705 -0.4472176134586334 -0.5257267355918884
vn 0.27639052271842957 0.447218656539917 0.8506489396095276
vn -0.7236074209213257 0.4472176134586334 0.5257267951965332
vn -0.7236074209213257 0.4472176134586334 -0.5257267951965332
vn 0.2763904929161072 0.4472185969352722 -0.8506489396095276
vn 0.894426167011261 0.44721564650535583 3.646233037724045e-10
vn 1.4467082110058982e-07 1.0 3.788671154580925e-09
vn -0.16245751082897186 -0.8506534695625305 0.4999961853027344
vn 0.4253236949443817 -0.8506531119346619 0.30901312828063965
vn 0.26286813616752625 -0.5257357358932495 0.8090131282806396
vn 0.8506487607955933 -0.5257343053817749 -1.757303080829331e-09
vn 0.4253236949443817 -0.8506531119346619 -0.30901312828063965
vn -0.5257288813591003 -0.8506521582603455 -4.587201729577828e-09
vn -0.6881893277168274 -0.5257343649864197 0.49999886751174927
vn -0.16245751082897186 -0.8506534695625305 -0.499996155500412
vn -0.6881893277168274 -0.5257343649864197 -0.4999988079071045
vn 0.26286813616752625 -0.5257357358932495 -0.8090131282806396
vn 0.9510568380355835 -2.74948490641691e-07 0.30901584029197693
vn 0.9510568380355835 -2.6904589844889415e-07 -0.30901584029197693
vn -8.469347001494043e-09 -2.2514343722690455e-09 1.0
vn 0.5877864956855774 2.8886685754514474e-07 0.8090160489082336
vn -0.9510568380355835 2.7613404540716147e-07 0.3090158700942993
vn -0.5877864956855774 -2.932357858753676e-07 0.8090161085128784
vn -0.5877864956855774 -2.943030779078981e-07 -0.8090161085128784
vn -0.9510568380355835 2.7590220952333766e-07 -0.30901584029197693
vn 0.5877864956855774 2.9088997166581976e-07 -0.8090160489082336
vn -7.121136458287936e-10 -5.6359632516489455e-09 -1.0
vn 0.6881892681121826 0.5257344245910645 0.49999886751174927
vn -0.26286810636520386 0.5257357358932495 0.8090131282806396
vn -0.850648820400238 0.5257343053817749 5.970587912962344e-10
vn -0.26286813616752625 0.5257357358932495 -0.8090131282806396
vn 0.6881893277168274 0.5257343649864197 -0.4999988079071045
vn 0.16245751082897186 0.8506534695625305 0.499996155500412
vn 0.5257288217544556 0.8506522178649902 -4.962569466471223e-09
vn -0.4253236949443817 0.8506531119346619 0.30901312828063965
vn -0.4253236949443817 0.8506531119346619 -0.30901312828063965
vn 0.16245751082897186 0.8506534695625305 -0.4999961853027344
