ply
format ascii 1.0
comment Created in Blender version 4.0.1
element vertex 42
property float x
property float y
property float z
element face 80
property list uchar uint vertex_indices
end_header
0 -1 7.54979e-08
0.723607 -0.44721997 0.52572507
-0.276388 -0.44721994 0.85064906
-0.894426 -0.447216 3.3763868e-08
-0.276388 -0.44722006 -0.85064894
0.723607 -0.44722003 -0.52572495
0.276388 0.44722006 0.85064894
-0.723607 0.44722003 0.52572495
-0.723607 0.44721997 -0.52572507
0.276388 0.44721994 -0.85064906
0.894426 0.447216 -3.3763868e-08
0 1 -7.54979e-08
-0.162456 -0.85065395 0.49999505
0.425323 -0.850654 0.30901107
0.262869 -0.52573794 0.80901206
0.850648 -0.525736 3.969196e-08
0.425323 -0.850654 -0.30901095
-0.52573 -0.850652 6.422244e-08
-0.688189 -0.5257359 0.49999702
-0.162456 -0.85065407 -0.49999493
-0.688189 -0.52573603 -0.49999696
0.262869 -0.52573806 -0.80901194
0.951058 2.3329834e-08 0.309013
0.951058 -2.3329834e-08 -0.309013
0 7.54979e-08 1
0.587786 6.1079085e-08 0.809017
-0.951058 2.3329834e-08 0.309013
-0.587786 6.1079085e-08 0.809017
-0.587786 -6.1079085e-08 -0.809017
-0.951058 -2.3329834e-08 -0.309013
0.587786 -6.1079085e-08 -0.809017
0 -7.54979e-08 -1
0.688189 0.52573603 0.49999696
-0.262869 0.52573806 0.80901194
-0.850648 0.525736 -3.969196e-08
-0.262869 0.52573794 -0.80901206
0.688189 0.5257359 -0.49999702
0.162456 0.85065407 0.49999493
0.52573 0.850652 -6.422244e-08
-0.425323 0.850654 0.30901095
-0.425323 0.850654 -0.30901107
0.162456 0.85065395 -0.49999505
3 0 13 12
3 1 13 15
3 0 12 17
3 0 17 19
3 0 19 16
3 1 15 22
3 2 14 24
3 3 18 26
3 4 20 28
3 5 21 30
3 1 22 25
3 2 24 27
3 3 26 29
3 4 28 31
3 5 30 23
3 6 32 37
3 7 33 39
3 8 34 40
3 9 35 41
3 10 36 38
3 38 41 11
3 38 36 41
3 36 9 41
3 41 40 11
3 41 35 40
3 35 8 40
3 40 39 11
3 40 34 39
3 34 7 39
3 39 37 11
3 39 33 37
3 33 6 37
3 37 38 11
3 37 32 38
3 32 10 38
3 23 36 10
3 23 30 36
3 30 9 36
3 31 35 9
3 31 28 35
3 28 8 35
3 29 34 8
3 29 26 34
3 26 7 34
3 27 33 7
3 27 24 33
3 24 6 33
3 25 32 6
3 25 22 32
3 22 10 32
3 30 31 9
3 30 21 31
3 21 4 31
3 28 29 8
3 28 20 29
3 20 3 29
3 26 27 7
3 26 18 27
3 18 2 27
3 24 25 6
3 24 14 25
3 14 1 25
3 22 23 10
3 22 15 23
3 15 5 23
3 16 21 5
3 16 19 21
3 19 4 21
3 19 20 4
3 19 17 20
3 17 3 20
3 17 18 3
3 17 12 18
3 12 2 18
3 15 16 5
3 15 13 16
3 13 0 16
3 12 14 2
3 12 13 14
3 13 1 14
